<svg xmlns="http://www.w3.org/2000/svg" version="1.1" xmlns:xlink="http://www.w3.org/1999/xlink" width="512" height="512" x="0" y="0" viewBox="0 0 512 512" style="enable-background:new 0 0 512 512" xml:space="preserve" class=""><g><path d="M473.1 106.1H38.9c-7.8 0-14.1-6.3-14.1-14.1s6.3-14.1 14.1-14.1h434.3c7.8 0 14.1 6.3 14.1 14.1s-6.4 14.1-14.2 14.1zM473.1 270.1H38.9c-7.8 0-14.1-6.3-14.1-14.1s6.3-14.1 14.1-14.1h434.3c7.8 0 14.1 6.3 14.1 14.1s-6.4 14.1-14.2 14.1zM473.1 434.1H38.9c-7.8 0-14.1-6.3-14.1-14.1s6.3-14.1 14.1-14.1h434.3c7.8 0 14.1 6.3 14.1 14.1s-6.4 14.1-14.2 14.1z" fill="#ffffff" opacity="1" data-original="#000000" class=""></path></g></svg>